<svg xmlns="http://www.w3.org/2000/svg" xmlns:xlink="http://www.w3.org/1999/xlink" width="500" zoomAndPan="magnify" viewBox="0 0 375 374.999991" height="500" preserveAspectRatio="xMidYMid meet" version="1.0"><defs><g/><clipPath id="90a4fbfa4c"><path d="M 50.894531 160.398438 L 324.894531 160.398438 L 324.894531 231.144531 L 50.894531 231.144531 Z M 50.894531 160.398438 " clip-rule="nonzero"/></clipPath></defs><rect x="-37.5" width="450" fill="#ffffff" y="-37.499999" height="449.999989" fill-opacity="1"/><rect x="-37.5" width="450" fill="#ffffff" y="-37.499999" height="449.999989" fill-opacity="1"/><g clip-path="url(#90a4fbfa4c)"><path fill="#ffffff" d="M 50.894531 160.398438 L 325.03125 160.398438 L 325.03125 231.144531 L 50.894531 231.144531 Z M 50.894531 160.398438 " fill-opacity="1" fill-rule="nonzero"/></g><g fill="#000000" fill-opacity="1"><g transform="translate(41.261776, 337.675334)"><g><path d="M 274.75 -30.828125 C 280.039062 -30.828125 284.078125 -29.285156 286.859375 -26.203125 C 289.648438 -23.117188 291.046875 -19.519531 291.046875 -15.40625 C 291.046875 -8.65625 289.132812 -4.398438 285.3125 -2.640625 C 281.5 -0.878906 277.097656 0 272.109375 0 L 174.359375 0 C 169.960938 0 166.222656 -0.953125 163.140625 -2.859375 C 160.054688 -4.765625 158.515625 -8.800781 158.515625 -14.96875 C 158.515625 -19.957031 160.054688 -23.769531 163.140625 -26.40625 C 166.222656 -29.050781 169.671875 -30.375 173.484375 -30.375 C 176.421875 -30.375 179.132812 -30.15625 181.625 -29.71875 C 184.125 -29.28125 186.691406 -29.0625 189.328125 -29.0625 C 191.972656 -29.0625 193.957031 -30.160156 195.28125 -32.359375 C 196.601562 -34.566406 195.351562 -37.578125 191.53125 -41.390625 L 128.125 -109.640625 L 100.390625 -82.78125 L 100.390625 -47.109375 C 100.390625 -41.535156 101.488281 -37.0625 103.6875 -33.6875 C 105.894531 -30.3125 110.226562 -28.625 116.6875 -28.625 C 119.914062 -28.625 122.703125 -28.988281 125.046875 -29.71875 C 127.398438 -30.457031 130.484375 -30.828125 134.296875 -30.828125 C 145.160156 -30.828125 150.59375 -25.539062 150.59375 -14.96875 C 150.59375 -9.394531 148.679688 -5.503906 144.859375 -3.296875 C 141.046875 -1.097656 136.644531 0 131.65625 0 L 35.21875 0 C 30.53125 0 26.203125 -1.097656 22.234375 -3.296875 C 18.273438 -5.503906 16.296875 -9.394531 16.296875 -14.96875 C 16.296875 -25.539062 21.722656 -30.828125 32.578125 -30.828125 C 36.691406 -30.828125 39.847656 -30.457031 42.046875 -29.71875 C 44.253906 -28.988281 46.972656 -28.625 50.203125 -28.625 C 56.953125 -28.625 61.351562 -30.3125 63.40625 -33.6875 C 65.457031 -37.0625 66.484375 -41.535156 66.484375 -47.109375 L 66.484375 -257.578125 C 66.484375 -263.160156 65.601562 -267.640625 63.84375 -271.015625 C 62.082031 -274.390625 59 -276.078125 54.59375 -276.078125 C 51.363281 -276.078125 48.648438 -275.707031 46.453125 -274.96875 C 44.253906 -274.238281 41.097656 -273.875 36.984375 -273.875 C 31.703125 -273.875 27.59375 -275.414062 24.65625 -278.5 C 21.71875 -281.582031 20.25 -285.175781 20.25 -289.28125 C 20.25 -296.03125 22.300781 -300.285156 26.40625 -302.046875 C 30.519531 -303.816406 34.925781 -304.703125 39.625 -304.703125 L 70.453125 -304.703125 C 73.390625 -304.703125 75.8125 -304.703125 77.71875 -304.703125 C 79.625 -304.703125 81.601562 -304.703125 83.65625 -304.703125 C 88.9375 -304.703125 93.046875 -303.742188 95.984375 -301.828125 C 98.921875 -299.921875 100.390625 -295.15625 100.390625 -287.53125 L 100.390625 -125.046875 L 163.796875 -184.484375 C 169.671875 -190.359375 171.429688 -194.539062 169.078125 -197.03125 C 166.734375 -199.53125 163.800781 -200.78125 160.28125 -200.78125 C 157.050781 -200.78125 154.113281 -200.410156 151.46875 -199.671875 C 148.820312 -198.941406 145.445312 -198.578125 141.34375 -198.578125 C 136.0625 -198.578125 132.023438 -200.117188 129.234375 -203.203125 C 126.441406 -206.285156 125.046875 -210.175781 125.046875 -214.875 C 125.046875 -220.15625 127.023438 -223.894531 130.984375 -226.09375 C 134.953125 -228.300781 139.285156 -229.40625 143.984375 -229.40625 L 246.140625 -229.40625 C 251.128906 -229.40625 255.53125 -228.300781 259.34375 -226.09375 C 263.15625 -223.894531 265.0625 -220.15625 265.0625 -214.875 C 265.0625 -210.175781 263.664062 -206.285156 260.875 -203.203125 C 258.09375 -200.117188 254.0625 -198.578125 248.78125 -198.578125 C 244.957031 -198.578125 241.648438 -198.941406 238.859375 -199.671875 C 236.078125 -200.410156 232.925781 -200.78125 229.40625 -200.78125 C 224.707031 -200.78125 220.671875 -199.238281 217.296875 -196.15625 C 213.921875 -193.070312 210.617188 -189.914062 207.390625 -186.6875 L 150.59375 -131.21875 L 228.96875 -45.359375 C 233.957031 -39.773438 238.066406 -35.585938 241.296875 -32.796875 C 244.523438 -30.015625 248.484375 -28.625 253.171875 -28.625 C 256.398438 -28.625 259.847656 -28.988281 263.515625 -29.71875 C 267.191406 -30.457031 270.9375 -30.828125 274.75 -30.828125 Z M 274.75 -30.828125 "/></g></g></g></svg>