<svg xmlns="http://www.w3.org/2000/svg" xmlns:xlink="http://www.w3.org/1999/xlink" width="500" zoomAndPan="magnify" viewBox="0 0 375 374.999991" height="500" preserveAspectRatio="xMidYMid meet" version="1.0"><defs><g/><clipPath id="11f012ce3c"><path d="M 50.894531 160.398438 L 324.894531 160.398438 L 324.894531 231.144531 L 50.894531 231.144531 Z M 50.894531 160.398438 " clip-rule="nonzero"/></clipPath></defs><rect x="-37.5" width="450" fill="#ffffff" y="-37.499999" height="449.999989" fill-opacity="1"/><rect x="-37.5" width="450" fill="#ffffff" y="-37.499999" height="449.999989" fill-opacity="1"/><g clip-path="url(#11f012ce3c)"><path fill="#ffffff" d="M 50.894531 160.398438 L 325.03125 160.398438 L 325.03125 231.144531 L 50.894531 231.144531 Z M 50.894531 160.398438 " fill-opacity="1" fill-rule="nonzero"/></g><g fill="#000000" fill-opacity="1"><g transform="translate(52.857927, 238.935348)"><g><path d="M 95.25 -10.6875 C 97.082031 -10.6875 98.484375 -10.148438 99.453125 -9.078125 C 100.421875 -8.015625 100.90625 -6.769531 100.90625 -5.34375 C 100.90625 -3 100.242188 -1.519531 98.921875 -0.90625 C 97.597656 -0.300781 96.070312 0 94.34375 0 L 60.453125 0 C 58.921875 0 57.617188 -0.328125 56.546875 -0.984375 C 55.484375 -1.648438 54.953125 -3.050781 54.953125 -5.1875 C 54.953125 -6.914062 55.484375 -8.238281 56.546875 -9.15625 C 57.617188 -10.070312 58.816406 -10.53125 60.140625 -10.53125 C 61.160156 -10.53125 62.101562 -10.453125 62.96875 -10.296875 C 63.832031 -10.148438 64.722656 -10.078125 65.640625 -10.078125 C 66.554688 -10.078125 67.242188 -10.457031 67.703125 -11.21875 C 68.160156 -11.976562 67.726562 -13.019531 66.40625 -14.34375 L 44.421875 -38.015625 L 34.8125 -28.703125 L 34.8125 -16.328125 C 34.8125 -14.398438 35.191406 -12.847656 35.953125 -11.671875 C 36.710938 -10.503906 38.210938 -9.921875 40.453125 -9.921875 C 41.578125 -9.921875 42.546875 -10.046875 43.359375 -10.296875 C 44.171875 -10.554688 45.238281 -10.6875 46.5625 -10.6875 C 50.320312 -10.6875 52.203125 -8.851562 52.203125 -5.1875 C 52.203125 -3.257812 51.539062 -1.910156 50.21875 -1.140625 C 48.894531 -0.378906 47.367188 0 45.640625 0 L 12.21875 0 C 10.582031 0 9.078125 -0.378906 7.703125 -1.140625 C 6.328125 -1.910156 5.640625 -3.257812 5.640625 -5.1875 C 5.640625 -8.851562 7.523438 -10.6875 11.296875 -10.6875 C 12.722656 -10.6875 13.816406 -10.554688 14.578125 -10.296875 C 15.335938 -10.046875 16.28125 -9.921875 17.40625 -9.921875 C 19.738281 -9.921875 21.257812 -10.503906 21.96875 -11.671875 C 22.6875 -12.847656 23.046875 -14.398438 23.046875 -16.328125 L 23.046875 -89.296875 C 23.046875 -91.234375 22.738281 -92.785156 22.125 -93.953125 C 21.519531 -95.128906 20.453125 -95.71875 18.921875 -95.71875 C 17.804688 -95.71875 16.863281 -95.585938 16.09375 -95.328125 C 15.332031 -95.078125 14.242188 -94.953125 12.828125 -94.953125 C 10.992188 -94.953125 9.566406 -95.484375 8.546875 -96.546875 C 7.523438 -97.617188 7.015625 -98.867188 7.015625 -100.296875 C 7.015625 -102.640625 7.726562 -104.113281 9.15625 -104.71875 C 10.582031 -105.332031 12.109375 -105.640625 13.734375 -105.640625 L 24.421875 -105.640625 C 25.441406 -105.640625 26.28125 -105.640625 26.9375 -105.640625 C 27.601562 -105.640625 28.289062 -105.640625 29 -105.640625 C 30.832031 -105.640625 32.257812 -105.304688 33.28125 -104.640625 C 34.300781 -103.984375 34.8125 -102.332031 34.8125 -99.6875 L 34.8125 -43.359375 L 56.78125 -63.96875 C 58.820312 -66 59.4375 -67.445312 58.625 -68.3125 C 57.8125 -69.175781 56.789062 -69.609375 55.5625 -69.609375 C 54.445312 -69.609375 53.429688 -69.476562 52.515625 -69.21875 C 51.597656 -68.96875 50.425781 -68.84375 49 -68.84375 C 47.164062 -68.84375 45.765625 -69.375 44.796875 -70.4375 C 43.835938 -71.507812 43.359375 -72.863281 43.359375 -74.5 C 43.359375 -76.332031 44.039062 -77.628906 45.40625 -78.390625 C 46.78125 -79.148438 48.285156 -79.53125 49.921875 -79.53125 L 85.328125 -79.53125 C 87.066406 -79.53125 88.597656 -79.148438 89.921875 -78.390625 C 91.242188 -77.628906 91.90625 -76.332031 91.90625 -74.5 C 91.90625 -72.863281 91.421875 -71.507812 90.453125 -70.4375 C 89.484375 -69.375 88.082031 -68.84375 86.25 -68.84375 C 84.925781 -68.84375 83.78125 -68.96875 82.8125 -69.21875 C 81.84375 -69.476562 80.75 -69.609375 79.53125 -69.609375 C 77.90625 -69.609375 76.503906 -69.070312 75.328125 -68 C 74.160156 -66.9375 73.019531 -65.84375 71.90625 -64.71875 L 52.203125 -45.484375 L 79.375 -15.71875 C 81.101562 -13.789062 82.523438 -12.34375 83.640625 -11.375 C 84.765625 -10.40625 86.144531 -9.921875 87.78125 -9.921875 C 88.894531 -9.921875 90.085938 -10.046875 91.359375 -10.296875 C 92.628906 -10.554688 93.925781 -10.6875 95.25 -10.6875 Z M 95.25 -10.6875 "/></g></g></g><g fill="#000000" fill-opacity="1"><g transform="translate(176.653034, 238.935348)"><g><path d="M 27.015625 -89.15625 C 24.578125 -89.15625 22.46875 -90.019531 20.6875 -91.75 C 18.90625 -93.476562 18.015625 -95.613281 18.015625 -98.15625 C 18.015625 -100.601562 18.90625 -102.691406 20.6875 -104.421875 C 22.46875 -106.148438 24.578125 -107.015625 27.015625 -107.015625 C 29.460938 -107.015625 31.550781 -106.148438 33.28125 -104.421875 C 35.007812 -102.691406 35.875 -100.601562 35.875 -98.15625 C 35.875 -95.613281 35.007812 -93.476562 33.28125 -91.75 C 31.550781 -90.019531 29.460938 -89.15625 27.015625 -89.15625 Z M 23.046875 -63.203125 C 23.046875 -65.128906 22.738281 -66.675781 22.125 -67.84375 C 21.519531 -69.019531 20.453125 -69.609375 18.921875 -69.609375 C 17.804688 -69.609375 16.863281 -69.476562 16.09375 -69.21875 C 15.332031 -68.96875 14.242188 -68.84375 12.828125 -68.84375 C 10.992188 -68.84375 9.566406 -69.375 8.546875 -70.4375 C 7.523438 -71.507812 7.015625 -72.757812 7.015625 -74.1875 C 7.015625 -76.53125 7.726562 -78.003906 9.15625 -78.609375 C 10.582031 -79.222656 12.109375 -79.53125 13.734375 -79.53125 L 24.421875 -79.53125 C 25.441406 -79.53125 26.28125 -79.53125 26.9375 -79.53125 C 27.601562 -79.53125 28.289062 -79.53125 29 -79.53125 C 30.832031 -79.53125 32.257812 -79.195312 33.28125 -78.53125 C 34.300781 -77.875 34.8125 -76.222656 34.8125 -73.578125 L 34.8125 -16.328125 C 34.8125 -14.398438 35.191406 -12.847656 35.953125 -11.671875 C 36.710938 -10.503906 38.210938 -9.921875 40.453125 -9.921875 C 41.578125 -9.921875 42.546875 -10.046875 43.359375 -10.296875 C 44.171875 -10.554688 45.238281 -10.6875 46.5625 -10.6875 C 50.320312 -10.6875 52.203125 -8.851562 52.203125 -5.1875 C 52.203125 -3.257812 51.539062 -1.910156 50.21875 -1.140625 C 48.894531 -0.378906 47.367188 0 45.640625 0 L 12.21875 0 C 10.582031 0 9.078125 -0.378906 7.703125 -1.140625 C 6.328125 -1.910156 5.640625 -3.257812 5.640625 -5.1875 C 5.640625 -8.851562 7.523438 -10.6875 11.296875 -10.6875 C 12.722656 -10.6875 13.816406 -10.554688 14.578125 -10.296875 C 15.335938 -10.046875 16.28125 -9.921875 17.40625 -9.921875 C 19.738281 -9.921875 21.257812 -10.503906 21.96875 -11.671875 C 22.6875 -12.847656 23.046875 -14.398438 23.046875 -16.328125 Z M 23.046875 -63.203125 "/></g></g></g><g fill="#000000" fill-opacity="1"><g transform="translate(255.571063, 238.935348)"><g><path d="M 56.03125 -34.953125 C 58.363281 -34.953125 59.960938 -34.316406 60.828125 -33.046875 C 61.691406 -31.773438 62.125 -30.070312 62.125 -27.9375 C 62.125 -22.75 61.3125 -17.960938 59.6875 -13.578125 C 58.0625 -9.203125 55.566406 -5.691406 52.203125 -3.046875 C 48.847656 -0.398438 44.578125 0.921875 39.390625 0.921875 C 37.148438 0.921875 34.753906 0.640625 32.203125 0.078125 C 29.660156 -0.484375 27.296875 -1.628906 25.109375 -3.359375 C 22.921875 -5.085938 21.113281 -7.707031 19.6875 -11.21875 C 18.269531 -14.726562 17.5625 -19.382812 17.5625 -25.1875 L 17.5625 -70.0625 L 8.859375 -70.0625 C 7.222656 -70.0625 5.867188 -70.519531 4.796875 -71.4375 C 3.734375 -72.351562 3.203125 -73.472656 3.203125 -74.796875 C 3.203125 -76.222656 3.734375 -77.367188 4.796875 -78.234375 C 5.867188 -79.097656 7.222656 -79.53125 8.859375 -79.53125 L 17.5625 -79.53125 L 17.5625 -98.765625 C 17.5625 -101.003906 18.039062 -102.707031 19 -103.875 C 19.96875 -105.050781 21.21875 -105.640625 22.75 -105.640625 C 26.71875 -105.640625 28.703125 -103.347656 28.703125 -98.765625 L 29 -79.53125 L 45.796875 -79.53125 C 47.421875 -79.53125 48.765625 -79.097656 49.828125 -78.234375 C 50.898438 -77.367188 51.4375 -76.222656 51.4375 -74.796875 C 51.4375 -73.472656 50.898438 -72.351562 49.828125 -71.4375 C 48.765625 -70.519531 47.421875 -70.0625 45.796875 -70.0625 L 29 -70.0625 L 29.609375 -25.1875 C 29.609375 -18.675781 30.445312 -14.425781 32.125 -12.4375 C 33.8125 -10.457031 36.234375 -9.46875 39.390625 -9.46875 C 42.441406 -9.46875 44.675781 -10.40625 46.09375 -12.28125 C 47.519531 -14.164062 48.4375 -16.507812 48.84375 -19.3125 C 49.25 -22.113281 49.453125 -24.9375 49.453125 -27.78125 C 49.453125 -29.820312 49.960938 -31.523438 50.984375 -32.890625 C 52.003906 -34.265625 53.6875 -34.953125 56.03125 -34.953125 Z M 56.03125 -34.953125 "/></g></g></g></svg>