<svg xmlns="http://www.w3.org/2000/svg" viewBox="50 168 280 57" preserveAspectRatio="xMidYMid meet"><g fill="#000000" fill-opacity="1"><g transform="translate(55.181991, 212.249986)"><g><path d="M 36.8125 -4.125 C 37.519531 -4.125 38.0625 -3.914062 38.4375 -3.5 C 38.8125 -3.09375 39 -2.613281 39 -2.0625 C 39 -1.15625 38.742188 -0.582031 38.234375 -0.34375 C 37.722656 -0.113281 37.132812 0 36.46875 0 L 23.359375 0 C 22.773438 0 22.273438 -0.125 21.859375 -0.375 C 21.441406 -0.632812 21.234375 -1.175781 21.234375 -2 C 21.234375 -2.675781 21.441406 -3.191406 21.859375 -3.546875 C 22.273438 -3.898438 22.738281 -4.078125 23.25 -4.078125 C 23.644531 -4.078125 24.007812 -4.046875 24.34375 -3.984375 C 24.675781 -3.921875 25.019531 -3.890625 25.375 -3.890625 C 25.726562 -3.890625 25.992188 -4.035156 26.171875 -4.328125 C 26.347656 -4.628906 26.179688 -5.035156 25.671875 -5.546875 L 17.171875 -14.6875 L 13.453125 -11.09375 L 13.453125 -6.3125 C 13.453125 -5.5625 13.597656 -4.957031 13.890625 -4.5 C 14.191406 -4.050781 14.773438 -3.828125 15.640625 -3.828125 C 16.066406 -3.828125 16.4375 -3.875 16.75 -3.96875 C 17.070312 -4.070312 17.488281 -4.125 18 -4.125 C 19.445312 -4.125 20.171875 -3.414062 20.171875 -2 C 20.171875 -1.257812 19.914062 -0.738281 19.40625 -0.4375 C 18.894531 -0.144531 18.304688 0 17.640625 0 L 4.71875 0 C 4.09375 0 3.515625 -0.144531 2.984375 -0.4375 C 2.453125 -0.738281 2.1875 -1.257812 2.1875 -2 C 2.1875 -3.414062 2.910156 -4.125 4.359375 -4.125 C 4.910156 -4.125 5.332031 -4.070312 5.625 -3.96875 C 5.925781 -3.875 6.289062 -3.828125 6.71875 -3.828125 C 7.625 -3.828125 8.210938 -4.050781 8.484375 -4.5 C 8.765625 -4.957031 8.90625 -5.5625 8.90625 -6.3125 L 8.90625 -34.515625 C 8.90625 -35.265625 8.785156 -35.863281 8.546875 -36.3125 C 8.316406 -36.769531 7.90625 -37 7.3125 -37 C 6.882812 -37 6.519531 -36.945312 6.21875 -36.84375 C 5.925781 -36.75 5.503906 -36.703125 4.953125 -36.703125 C 4.242188 -36.703125 3.691406 -36.90625 3.296875 -37.3125 C 2.910156 -37.726562 2.71875 -38.210938 2.71875 -38.765625 C 2.71875 -39.671875 2.988281 -40.238281 3.53125 -40.46875 C 4.082031 -40.707031 4.675781 -40.828125 5.3125 -40.828125 L 9.4375 -40.828125 C 9.832031 -40.828125 10.15625 -40.828125 10.40625 -40.828125 C 10.664062 -40.828125 10.929688 -40.828125 11.203125 -40.828125 C 11.910156 -40.828125 12.460938 -40.695312 12.859375 -40.4375 C 13.253906 -40.1875 13.453125 -39.550781 13.453125 -38.53125 L 13.453125 -16.75 L 21.953125 -24.71875 C 22.734375 -25.507812 22.96875 -26.070312 22.65625 -26.40625 C 22.34375 -26.738281 21.945312 -26.90625 21.46875 -26.90625 C 21.039062 -26.90625 20.648438 -26.851562 20.296875 -26.75 C 19.941406 -26.65625 19.488281 -26.609375 18.9375 -26.609375 C 18.226562 -26.609375 17.6875 -26.8125 17.3125 -27.21875 C 16.9375 -27.632812 16.75 -28.160156 16.75 -28.796875 C 16.75 -29.503906 17.015625 -30.003906 17.546875 -30.296875 C 18.078125 -30.585938 18.660156 -30.734375 19.296875 -30.734375 L 32.984375 -30.734375 C 33.648438 -30.734375 34.238281 -30.585938 34.75 -30.296875 C 35.257812 -30.003906 35.515625 -29.503906 35.515625 -28.796875 C 35.515625 -28.160156 35.328125 -27.632812 34.953125 -27.21875 C 34.578125 -26.8125 34.035156 -26.609375 33.328125 -26.609375 C 32.816406 -26.609375 32.375 -26.65625 32 -26.75 C 31.632812 -26.851562 31.210938 -26.90625 30.734375 -26.90625 C 30.109375 -26.90625 29.566406 -26.695312 29.109375 -26.28125 C 28.660156 -25.875 28.21875 -25.453125 27.78125 -25.015625 L 20.171875 -17.578125 L 30.6875 -6.078125 C 31.351562 -5.328125 31.898438 -4.765625 32.328125 -4.390625 C 32.765625 -4.015625 33.296875 -3.828125 33.921875 -3.828125 C 34.359375 -3.828125 34.820312 -3.875 35.3125 -3.96875 C 35.800781 -4.070312 36.300781 -4.125 36.8125 -4.125 Z M 36.8125 -4.125 "/></g></g></g><g fill="#000000" fill-opacity="1"><g transform="translate(103.025598, 212.249986)"><g><path d="M 10.4375 -34.453125 C 9.5 -34.453125 8.6875 -34.785156 8 -35.453125 C 7.3125 -36.128906 6.96875 -36.957031 6.96875 -37.9375 C 6.96875 -38.882812 7.3125 -39.691406 8 -40.359375 C 8.6875 -41.023438 9.5 -41.359375 10.4375 -41.359375 C 11.382812 -41.359375 12.191406 -41.023438 12.859375 -40.359375 C 13.523438 -39.691406 13.859375 -38.882812 13.859375 -37.9375 C 13.859375 -36.957031 13.523438 -36.128906 12.859375 -35.453125 C 12.191406 -34.785156 11.382812 -34.453125 10.4375 -34.453125 Z M 8.90625 -24.421875 C 8.90625 -25.171875 8.785156 -25.769531 8.546875 -26.21875 C 8.316406 -26.675781 7.90625 -26.90625 7.3125 -26.90625 C 6.882812 -26.90625 6.519531 -26.851562 6.21875 -26.75 C 5.925781 -26.65625 5.503906 -26.609375 4.953125 -26.609375 C 4.242188 -26.609375 3.691406 -26.8125 3.296875 -27.21875 C 2.910156 -27.632812 2.71875 -28.117188 2.71875 -28.671875 C 2.71875 -29.578125 2.988281 -30.144531 3.53125 -30.375 C 4.082031 -30.613281 4.675781 -30.734375 5.3125 -30.734375 L 9.4375 -30.734375 C 9.832031 -30.734375 10.15625 -30.734375 10.40625 -30.734375 C 10.664062 -30.734375 10.929688 -30.734375 11.203125 -30.734375 C 11.910156 -30.734375 12.460938 -30.601562 12.859375 -30.34375 C 13.253906 -30.09375 13.453125 -29.457031 13.453125 -28.4375 L 13.453125 -6.3125 C 13.453125 -5.5625 13.597656 -4.957031 13.890625 -4.5 C 14.191406 -4.050781 14.773438 -3.828125 15.640625 -3.828125 C 16.066406 -3.828125 16.4375 -3.875 16.75 -3.96875 C 17.070312 -4.070312 17.488281 -4.125 18 -4.125 C 19.445312 -4.125 20.171875 -3.414062 20.171875 -2 C 20.171875 -1.257812 19.914062 -0.738281 19.40625 -0.4375 C 18.894531 -0.144531 18.304688 0 17.640625 0 L 4.71875 0 C 4.09375 0 3.515625 -0.144531 2.984375 -0.4375 C 2.453125 -0.738281 2.1875 -1.257812 2.1875 -2 C 2.1875 -3.414062 2.910156 -4.125 4.359375 -4.125 C 4.910156 -4.125 5.332031 -4.070312 5.625 -3.96875 C 5.925781 -3.875 6.289062 -3.828125 6.71875 -3.828125 C 7.625 -3.828125 8.210938 -4.050781 8.484375 -4.5 C 8.765625 -4.957031 8.90625 -5.5625 8.90625 -6.3125 Z M 8.90625 -24.421875 "/></g></g></g><g fill="#000000" fill-opacity="1"><g transform="translate(133.525514, 212.249986)"><g><path d="M 21.65625 -13.515625 C 22.5625 -13.515625 23.179688 -13.265625 23.515625 -12.765625 C 23.847656 -12.273438 24.015625 -11.617188 24.015625 -10.796875 C 24.015625 -8.785156 23.695312 -6.9375 23.0625 -5.25 C 22.4375 -3.5625 21.472656 -2.203125 20.171875 -1.171875 C 18.878906 -0.148438 17.226562 0.359375 15.21875 0.359375 C 14.351562 0.359375 13.425781 0.25 12.4375 0.03125 C 11.457031 -0.1875 10.546875 -0.628906 9.703125 -1.296875 C 8.859375 -1.960938 8.160156 -2.972656 7.609375 -4.328125 C 7.054688 -5.691406 6.78125 -7.492188 6.78125 -9.734375 L 6.78125 -27.078125 L 3.421875 -27.078125 C 2.796875 -27.078125 2.273438 -27.253906 1.859375 -27.609375 C 1.441406 -27.960938 1.234375 -28.394531 1.234375 -28.90625 C 1.234375 -29.457031 1.441406 -29.898438 1.859375 -30.234375 C 2.273438 -30.566406 2.796875 -30.734375 3.421875 -30.734375 L 6.78125 -30.734375 L 6.78125 -38.171875 C 6.78125 -39.035156 6.96875 -39.691406 7.34375 -40.140625 C 7.71875 -40.597656 8.203125 -40.828125 8.796875 -40.828125 C 10.328125 -40.828125 11.09375 -39.941406 11.09375 -38.171875 L 11.203125 -30.734375 L 17.703125 -30.734375 C 18.328125 -30.734375 18.847656 -30.566406 19.265625 -30.234375 C 19.679688 -29.898438 19.890625 -29.457031 19.890625 -28.90625 C 19.890625 -28.394531 19.679688 -27.960938 19.265625 -27.609375 C 18.847656 -27.253906 18.328125 -27.078125 17.703125 -27.078125 L 11.203125 -27.078125 L 11.453125 -9.734375 C 11.453125 -7.210938 11.773438 -5.566406 12.421875 -4.796875 C 13.066406 -4.035156 14 -3.65625 15.21875 -3.65625 C 16.394531 -3.65625 17.257812 -4.019531 17.8125 -4.75 C 18.363281 -5.476562 18.71875 -6.382812 18.875 -7.46875 C 19.03125 -8.550781 19.109375 -9.640625 19.109375 -10.734375 C 19.109375 -11.523438 19.304688 -12.1875 19.703125 -12.71875 C 20.097656 -13.25 20.75 -13.515625 21.65625 -13.515625 Z M 21.65625 -13.515625 "/></g></g></g><g fill="#000000" fill-opacity="1"><g transform="translate(167.800933, 212.249986)"><g><path d="M 16.40625 -3.65625 C 17.976562 -3.65625 19.253906 -4.007812 20.234375 -4.71875 C 21.222656 -5.425781 21.984375 -6.28125 22.515625 -7.28125 C 23.046875 -8.289062 23.367188 -9.242188 23.484375 -10.140625 C 23.597656 -10.929688 23.820312 -11.59375 24.15625 -12.125 C 24.488281 -12.65625 25.109375 -12.921875 26.015625 -12.921875 C 26.921875 -12.921875 27.5625 -12.675781 27.9375 -12.1875 C 28.3125 -11.695312 28.457031 -11.035156 28.375 -10.203125 C 28.257812 -8.398438 27.660156 -6.691406 26.578125 -5.078125 C 25.492188 -3.460938 24.078125 -2.148438 22.328125 -1.140625 C 20.578125 -0.140625 18.601562 0.359375 16.40625 0.359375 C 14.632812 0.359375 12.941406 0.132812 11.328125 -0.3125 C 9.710938 -0.769531 8.273438 -1.566406 7.015625 -2.703125 C 5.765625 -3.847656 4.773438 -5.460938 4.046875 -7.546875 C 3.316406 -9.628906 2.953125 -12.328125 2.953125 -15.640625 C 2.953125 -18.703125 3.316406 -21.226562 4.046875 -23.21875 C 4.773438 -25.207031 5.753906 -26.78125 6.984375 -27.9375 C 8.222656 -29.09375 9.609375 -29.90625 11.140625 -30.375 C 12.679688 -30.851562 14.257812 -31.09375 15.875 -31.09375 C 19.375 -31.09375 22.101562 -30.265625 24.0625 -28.609375 C 26.03125 -26.960938 27.015625 -24.859375 27.015625 -22.296875 C 27.015625 -21.117188 26.71875 -20.195312 26.125 -19.53125 C 25.539062 -18.863281 24.738281 -18.53125 23.71875 -18.53125 C 22.851562 -18.53125 22.171875 -18.796875 21.671875 -19.328125 C 21.179688 -19.859375 20.9375 -20.457031 20.9375 -21.125 C 20.9375 -21.75 21.015625 -22.25 21.171875 -22.625 C 21.335938 -23 21.421875 -23.320312 21.421875 -23.59375 C 21.421875 -24.625 20.914062 -25.460938 19.90625 -26.109375 C 18.90625 -26.753906 17.5625 -27.078125 15.875 -27.078125 C 13.113281 -27.078125 11.09375 -26.070312 9.8125 -24.0625 C 8.539062 -22.0625 7.90625 -19.253906 7.90625 -15.640625 C 7.90625 -11.585938 8.570312 -8.578125 9.90625 -6.609375 C 11.25 -4.640625 13.414062 -3.65625 16.40625 -3.65625 Z M 16.40625 -3.65625 "/></g></g></g><g fill="#000000" fill-opacity="1"><g transform="translate(207.680592, 212.249986)"><g><path d="M 38.9375 -4.125 C 40.394531 -4.125 41.125 -3.414062 41.125 -2 C 41.125 -1.257812 40.867188 -0.738281 40.359375 -0.4375 C 39.847656 -0.144531 39.257812 0 38.59375 0 L 25.671875 0 C 25.035156 0 24.453125 -0.144531 23.921875 -0.4375 C 23.390625 -0.738281 23.125 -1.257812 23.125 -2 C 23.125 -3.414062 23.851562 -4.125 25.3125 -4.125 C 25.863281 -4.125 26.285156 -4.070312 26.578125 -3.96875 C 26.867188 -3.875 27.234375 -3.828125 27.671875 -3.828125 C 28.578125 -3.828125 29.164062 -4.050781 29.4375 -4.5 C 29.71875 -4.957031 29.859375 -5.5625 29.859375 -6.3125 L 30.03125 -18.578125 C 30.070312 -21.210938 29.519531 -23.285156 28.375 -24.796875 C 27.238281 -26.316406 25.273438 -27.078125 22.484375 -27.078125 C 19.722656 -27.078125 17.59375 -26.140625 16.09375 -24.265625 C 14.601562 -22.398438 13.859375 -19.523438 13.859375 -15.640625 L 13.859375 -6.3125 C 13.859375 -5.5625 14.003906 -4.957031 14.296875 -4.5 C 14.597656 -4.050781 15.179688 -3.828125 16.046875 -3.828125 C 16.484375 -3.828125 16.859375 -3.875 17.171875 -3.96875 C 17.484375 -4.070312 17.894531 -4.125 18.40625 -4.125 C 19.863281 -4.125 20.59375 -3.414062 20.59375 -2 C 20.59375 -1.257812 20.335938 -0.738281 19.828125 -0.4375 C 19.316406 -0.144531 18.722656 0 18.046875 0 L 5.140625 0 C 4.503906 0 3.921875 -0.144531 3.390625 -0.4375 C 2.859375 -0.738281 2.59375 -1.257812 2.59375 -2 C 2.59375 -3.414062 3.320312 -4.125 4.78125 -4.125 C 5.332031 -4.125 5.753906 -4.070312 6.046875 -3.96875 C 6.335938 -3.875 6.703125 -3.828125 7.140625 -3.828125 C 8.046875 -3.828125 8.632812 -4.050781 8.90625 -4.5 C 9.1875 -4.957031 9.328125 -5.5625 9.328125 -6.3125 L 9.328125 -34.515625 C 9.328125 -35.265625 9.207031 -35.863281 8.96875 -36.3125 C 8.726562 -36.769531 8.316406 -37 7.734375 -37 C 7.296875 -37 6.925781 -36.945312 6.625 -36.84375 C 6.332031 -36.75 5.914062 -36.703125 5.375 -36.703125 C 4.664062 -36.703125 4.113281 -36.90625 3.71875 -37.3125 C 3.320312 -37.726562 3.125 -38.210938 3.125 -38.765625 C 3.125 -39.671875 3.398438 -40.238281 3.953125 -40.46875 C 4.503906 -40.707031 5.09375 -40.828125 5.71875 -40.828125 L 9.859375 -40.828125 C 10.242188 -40.828125 10.5625 -40.828125 10.8125 -40.828125 C 11.070312 -40.828125 11.34375 -40.828125 11.625 -40.828125 C 12.332031 -40.828125 12.878906 -40.695312 13.265625 -40.4375 C 13.660156 -40.1875 13.859375 -39.550781 13.859375 -38.53125 L 13.859375 -27.140625 C 15.003906 -28.628906 16.390625 -29.660156 18.015625 -30.234375 C 19.648438 -30.804688 21.429688 -31.09375 23.359375 -31.09375 C 25.171875 -31.09375 26.941406 -30.757812 28.671875 -30.09375 C 30.398438 -29.425781 31.828125 -28.3125 32.953125 -26.75 C 34.078125 -25.195312 34.617188 -23.066406 34.578125 -20.359375 L 34.390625 -6.3125 C 34.390625 -5.5625 34.535156 -4.957031 34.828125 -4.5 C 35.128906 -4.050781 35.710938 -3.828125 36.578125 -3.828125 C 37.015625 -3.828125 37.390625 -3.875 37.703125 -3.96875 C 38.015625 -4.070312 38.425781 -4.125 38.9375 -4.125 Z M 38.9375 -4.125 "/></g></g></g><g fill="#000000" fill-opacity="1"><g transform="translate(259.771645, 212.249986)"><g><path d="M 8.90625 -6.3125 L 8.90625 -34.515625 C 8.90625 -35.265625 8.785156 -35.863281 8.546875 -36.3125 C 8.316406 -36.769531 7.90625 -37 7.3125 -37 C 6.882812 -37 6.519531 -36.945312 6.21875 -36.84375 C 5.925781 -36.75 5.503906 -36.703125 4.953125 -36.703125 C 4.242188 -36.703125 3.691406 -36.90625 3.296875 -37.3125 C 2.910156 -37.726562 2.71875 -38.210938 2.71875 -38.765625 C 2.71875 -39.671875 2.988281 -40.238281 3.53125 -40.46875 C 4.082031 -40.707031 4.675781 -40.828125 5.3125 -40.828125 L 9.4375 -40.828125 C 9.832031 -40.828125 10.15625 -40.828125 10.40625 -40.828125 C 10.664062 -40.828125 10.929688 -40.828125 11.203125 -40.828125 C 11.910156 -40.828125 12.460938 -40.695312 12.859375 -40.4375 C 13.253906 -40.1875 13.453125 -39.550781 13.453125 -38.53125 L 13.453125 -6.3125 C 13.453125 -5.5625 13.597656 -4.957031 13.890625 -4.5 C 14.191406 -4.050781 14.773438 -3.828125 15.640625 -3.828125 C 16.066406 -3.828125 16.4375 -3.875 16.75 -3.96875 C 17.070312 -4.070312 17.488281 -4.125 18 -4.125 C 19.445312 -4.125 20.171875 -3.414062 20.171875 -2 C 20.171875 -1.257812 19.914062 -0.738281 19.40625 -0.4375 C 18.894531 -0.144531 18.304688 0 17.640625 0 L 4.71875 0 C 4.09375 0 3.515625 -0.144531 2.984375 -0.4375 C 2.453125 -0.738281 2.1875 -1.257812 2.1875 -2 C 2.1875 -3.414062 2.910156 -4.125 4.359375 -4.125 C 4.910156 -4.125 5.332031 -4.070312 5.625 -3.96875 C 5.925781 -3.875 6.289062 -3.828125 6.71875 -3.828125 C 7.625 -3.828125 8.210938 -4.050781 8.484375 -4.5 C 8.765625 -4.957031 8.90625 -5.5625 8.90625 -6.3125 Z M 8.90625 -6.3125 "/></g></g></g><g fill="#000000" fill-opacity="1"><g transform="translate(290.094596, 212.249986)"><g><path d="M 27.546875 -24.953125 C 27.984375 -26.210938 27.769531 -26.84375 26.90625 -26.84375 C 26.550781 -26.84375 26.195312 -26.800781 25.84375 -26.71875 C 25.488281 -26.644531 25.078125 -26.609375 24.609375 -26.609375 C 24.171875 -26.609375 23.734375 -26.765625 23.296875 -27.078125 C 22.867188 -27.390625 22.65625 -27.921875 22.65625 -28.671875 C 22.65625 -29.378906 22.878906 -29.898438 23.328125 -30.234375 C 23.785156 -30.566406 24.304688 -30.734375 24.890625 -30.734375 L 36.46875 -30.734375 C 37.289062 -30.734375 37.957031 -30.601562 38.46875 -30.34375 C 38.976562 -30.09375 39.234375 -29.578125 39.234375 -28.796875 C 39.234375 -28.046875 39.035156 -27.492188 38.640625 -27.140625 C 38.253906 -26.785156 37.800781 -26.609375 37.28125 -26.609375 C 36.8125 -26.609375 36.425781 -26.644531 36.125 -26.71875 C 35.832031 -26.800781 35.507812 -26.84375 35.15625 -26.84375 C 34.570312 -26.84375 34.039062 -26.675781 33.5625 -26.34375 C 33.09375 -26.007812 32.679688 -25.390625 32.328125 -24.484375 L 24.25 -3.25 C 23.1875 -0.488281 22.238281 1.78125 21.40625 3.5625 C 20.582031 5.351562 19.769531 6.75 18.96875 7.75 C 18.164062 8.757812 17.300781 9.457031 16.375 9.84375 C 15.445312 10.238281 14.351562 10.4375 13.09375 10.4375 C 10.738281 10.4375 8.765625 9.914062 7.171875 8.875 C 5.578125 7.832031 4.78125 6.347656 4.78125 4.421875 C 4.78125 3.515625 5.046875 2.738281 5.578125 2.09375 C 6.109375 1.445312 6.90625 1.125 7.96875 1.125 C 8.59375 1.125 9.171875 1.289062 9.703125 1.625 C 10.234375 1.957031 10.554688 2.457031 10.671875 3.125 C 10.796875 3.757812 10.785156 4.242188 10.640625 4.578125 C 10.503906 4.910156 10.457031 5.210938 10.5 5.484375 C 10.539062 5.679688 10.773438 5.914062 11.203125 6.1875 C 11.640625 6.46875 12.15625 6.609375 12.75 6.609375 C 13.882812 6.609375 14.882812 6.085938 15.75 5.046875 C 16.613281 4.003906 17.363281 2.519531 18 0.59375 C 18.15625 0.15625 18.242188 -0.25 18.265625 -0.625 C 18.285156 -1 18.195312 -1.398438 18 -1.828125 L 9.5625 -24.484375 C 9.207031 -25.390625 8.789062 -26.007812 8.3125 -26.34375 C 7.84375 -26.675781 7.3125 -26.84375 6.71875 -26.84375 C 6.363281 -26.84375 6.039062 -26.800781 5.75 -26.71875 C 5.457031 -26.644531 5.078125 -26.609375 4.609375 -26.609375 C 4.085938 -26.609375 3.628906 -26.785156 3.234375 -27.140625 C 2.847656 -27.492188 2.65625 -28.046875 2.65625 -28.796875 C 2.65625 -29.578125 2.910156 -30.09375 3.421875 -30.34375 C 3.929688 -30.601562 4.597656 -30.734375 5.421875 -30.734375 L 16.984375 -30.734375 C 17.578125 -30.734375 18.097656 -30.566406 18.546875 -30.234375 C 19.003906 -29.898438 19.234375 -29.378906 19.234375 -28.671875 C 19.234375 -27.921875 19.015625 -27.390625 18.578125 -27.078125 C 18.148438 -26.765625 17.71875 -26.609375 17.28125 -26.609375 C 16.8125 -26.609375 16.398438 -26.644531 16.046875 -26.71875 C 15.691406 -26.800781 15.335938 -26.84375 14.984375 -26.84375 C 14.117188 -26.84375 13.90625 -26.210938 14.34375 -24.953125 L 20.59375 -7.3125 C 20.707031 -7.039062 20.84375 -6.90625 21 -6.90625 C 21.15625 -6.90625 21.273438 -7.039062 21.359375 -7.3125 Z M 27.546875 -24.953125 "/></g></g></g></svg>
